<?xml version="1.0" encoding="utf-8" standalone="no"?>
<!DOCTYPE svg PUBLIC "-//W3C//DTD SVG 1.1//EN"
  "http://www.w3.org/Graphics/SVG/1.1/DTD/svg11.dtd">
<svg xmlns:xlink="http://www.w3.org/1999/xlink" width="710.39952pt" height="176.36832pt" viewBox="0 0 710.39952 176.36832" xmlns="http://www.w3.org/2000/svg" version="1.1">
 <metadata>
  <rdf:RDF xmlns:dc="http://purl.org/dc/elements/1.1/" xmlns:cc="http://creativecommons.org/ns#" xmlns:rdf="http://www.w3.org/1999/02/22-rdf-syntax-ns#">
   <cc:Work>
    <dc:type rdf:resource="http://purl.org/dc/dcmitype/StillImage"/>
    <dc:date>2022-02-03T16:13:05.013173</dc:date>
    <dc:format>image/svg+xml</dc:format>
    <dc:creator>
     <cc:Agent>
      <dc:title>Matplotlib v3.5.1, https://matplotlib.org/</dc:title>
     </cc:Agent>
    </dc:creator>
   </cc:Work>
  </rdf:RDF>
 </metadata>
 <defs>
  <style type="text/css">*{stroke-linejoin: round; stroke-linecap: butt}</style>
 </defs>
 <g id="figure_1">
  <g id="patch_1">
   <path d="M 0 176.36832 
L 710.39952 176.36832 
L 710.39952 0 
L 0 0 
L 0 176.36832 
z
" style="fill: none"/>
  </g>
  <g id="axes_1">
   <g id="patch_2">
    <path d="M 36.933156 127.223042 
L 249.714892 127.223042 
L 249.714892 7.2 
L 36.933156 7.2 
z
" style="fill: #ffffff"/>
   </g>
   <g id="matplotlib.axis_1">
    <g id="xtick_1">
     <g id="line2d_1">
      <path d="M 36.933156 127.223042 
L 36.933156 7.2 
" clip-path="url(#p3f66a8b373)" style="fill: none; stroke: #b0b0b0; stroke-width: 0.25; stroke-linecap: square"/>
     </g>
     <g id="line2d_2">
      <defs>
       <path id="mf48eb6323d" d="M 0 0 
L 0 3.5 
" style="stroke: #000000; stroke-width: 0.8"/>
      </defs>
      <g>
       <use xlink:href="#mf48eb6323d" x="36.933156" y="127.223042" style="stroke: #000000; stroke-width: 0.8"/>
      </g>
     </g>
     <g id="text_1">
      <!-- $\mathdefault{−6}$ -->
      <g transform="translate(31.881118 139.191866)scale(0.07 -0.07)">
       <defs>
        <path id="CMSY10-0" d="M 4218 1472 
C 4326 1472 4442 1472 4442 1600 
C 4442 1728 4326 1728 4218 1728 
L 755 1728 
C 646 1728 531 1728 531 1600 
C 531 1472 646 1472 755 1472 
L 4218 1472 
z
" transform="scale(0.015625)"/>
        <path id="NimbusSanL-Regu-36" d="M 3187 3352 
C 3078 4102 2592 4544 1901 4544 
C 1402 4544 954 4300 685 3895 
C 403 3449 275 2887 275 2064 
C 275 1312 390 832 659 434 
C 902 70 1299 -128 1798 -128 
C 2662 -128 3283 510 3283 1388 
C 3283 2221 2707 2816 1894 2816 
C 1446 2816 1094 2643 851 2310 
C 858 3423 1216 4044 1862 4044 
C 2259 4044 2534 3792 2624 3352 
L 3187 3352 
z
M 1824 2316 
C 2368 2316 2707 1944 2707 1343 
C 2707 781 2323 371 1805 371 
C 1280 371 883 800 883 1375 
C 883 1931 1267 2316 1824 2316 
z
" transform="scale(0.015625)"/>
       </defs>
       <use xlink:href="#CMSY10-0" transform="scale(0.996264)"/>
       <use xlink:href="#NimbusSanL-Regu-36" transform="translate(77.487468 0)scale(0.996264)"/>
      </g>
     </g>
    </g>
    <g id="xtick_2">
     <g id="line2d_3">
      <path d="M 72.396779 127.223042 
L 72.396779 7.2 
" clip-path="url(#p3f66a8b373)" style="fill: none; stroke: #b0b0b0; stroke-width: 0.25; stroke-linecap: square"/>
     </g>
     <g id="line2d_4">
      <g>
       <use xlink:href="#mf48eb6323d" x="72.396779" y="127.223042" style="stroke: #000000; stroke-width: 0.8"/>
      </g>
     </g>
     <g id="text_2">
      <!-- $\mathdefault{−4}$ -->
      <g transform="translate(67.34474 139.191866)scale(0.07 -0.07)">
       <defs>
        <path id="NimbusSanL-Regu-34" d="M 2093 1088 
L 2093 0 
L 2656 0 
L 2656 1088 
L 3328 1088 
L 3328 1593 
L 2656 1593 
L 2656 4537 
L 2240 4537 
L 179 1683 
L 179 1088 
L 2093 1088 
z
M 2093 1593 
L 672 1593 
L 2093 3577 
L 2093 1593 
z
" transform="scale(0.015625)"/>
       </defs>
       <use xlink:href="#CMSY10-0" transform="scale(0.996264)"/>
       <use xlink:href="#NimbusSanL-Regu-34" transform="translate(77.487468 0)scale(0.996264)"/>
      </g>
     </g>
    </g>
    <g id="xtick_3">
     <g id="line2d_5">
      <path d="M 107.860402 127.223042 
L 107.860402 7.2 
" clip-path="url(#p3f66a8b373)" style="fill: none; stroke: #b0b0b0; stroke-width: 0.25; stroke-linecap: square"/>
     </g>
     <g id="line2d_6">
      <g>
       <use xlink:href="#mf48eb6323d" x="107.860402" y="127.223042" style="stroke: #000000; stroke-width: 0.8"/>
      </g>
     </g>
     <g id="text_3">
      <!-- $\mathdefault{−2}$ -->
      <g transform="translate(102.808363 139.191866)scale(0.07 -0.07)">
       <defs>
        <path id="NimbusSanL-Regu-32" d="M 3238 556 
L 851 556 
C 909 928 1114 1165 1670 1493 
L 2310 1839 
C 2944 2185 3270 2653 3270 3211 
C 3270 3589 3117 3942 2848 4185 
C 2579 4428 2246 4544 1818 4544 
C 1242 4544 813 4339 563 3955 
C 403 3711 333 3429 320 2967 
L 883 2967 
C 902 3275 941 3461 1018 3608 
C 1165 3884 1459 4051 1798 4051 
C 2310 4051 2694 3685 2694 3198 
C 2694 2839 2483 2531 2080 2300 
L 1491 1967 
C 544 1428 269 999 218 0 
L 3238 0 
L 3238 556 
z
" transform="scale(0.015625)"/>
       </defs>
       <use xlink:href="#CMSY10-0" transform="scale(0.996264)"/>
       <use xlink:href="#NimbusSanL-Regu-32" transform="translate(77.487468 0)scale(0.996264)"/>
      </g>
     </g>
    </g>
    <g id="xtick_4">
     <g id="line2d_7">
      <path d="M 143.324024 127.223042 
L 143.324024 7.2 
" clip-path="url(#p3f66a8b373)" style="fill: none; stroke: #b0b0b0; stroke-width: 0.25; stroke-linecap: square"/>
     </g>
     <g id="line2d_8">
      <g>
       <use xlink:href="#mf48eb6323d" x="143.324024" y="127.223042" style="stroke: #000000; stroke-width: 0.8"/>
      </g>
     </g>
     <g id="text_4">
      <!-- $\mathdefault{0}$ -->
      <g transform="translate(141.385318 139.191866)scale(0.07 -0.07)">
       <defs>
        <path id="NimbusSanL-Regu-30" d="M 1760 4544 
C 1338 4544 954 4358 717 4044 
C 422 3649 275 3043 275 2207 
C 275 683 787 -128 1760 -128 
C 2720 -128 3245 683 3245 2169 
C 3245 3049 3104 3636 2803 4044 
C 2566 4364 2189 4544 1760 4544 
z
M 1760 4044 
C 2368 4044 2669 3432 2669 2220 
C 2669 938 2374 339 1747 339 
C 1152 339 851 964 851 2201 
C 851 3438 1152 4044 1760 4044 
z
" transform="scale(0.015625)"/>
       </defs>
       <use xlink:href="#NimbusSanL-Regu-30" transform="scale(0.996264)"/>
      </g>
     </g>
    </g>
    <g id="xtick_5">
     <g id="line2d_9">
      <path d="M 178.787647 127.223042 
L 178.787647 7.2 
" clip-path="url(#p3f66a8b373)" style="fill: none; stroke: #b0b0b0; stroke-width: 0.25; stroke-linecap: square"/>
     </g>
     <g id="line2d_10">
      <g>
       <use xlink:href="#mf48eb6323d" x="178.787647" y="127.223042" style="stroke: #000000; stroke-width: 0.8"/>
      </g>
     </g>
     <g id="text_5">
      <!-- $\mathdefault{2}$ -->
      <g transform="translate(176.848941 139.191866)scale(0.07 -0.07)">
       <use xlink:href="#NimbusSanL-Regu-32" transform="scale(0.996264)"/>
      </g>
     </g>
    </g>
    <g id="xtick_6">
     <g id="line2d_11">
      <path d="M 214.25127 127.223042 
L 214.25127 7.2 
" clip-path="url(#p3f66a8b373)" style="fill: none; stroke: #b0b0b0; stroke-width: 0.25; stroke-linecap: square"/>
     </g>
     <g id="line2d_12">
      <g>
       <use xlink:href="#mf48eb6323d" x="214.25127" y="127.223042" style="stroke: #000000; stroke-width: 0.8"/>
      </g>
     </g>
     <g id="text_6">
      <!-- $\mathdefault{4}$ -->
      <g transform="translate(212.312564 139.191866)scale(0.07 -0.07)">
       <use xlink:href="#NimbusSanL-Regu-34" transform="scale(0.996264)"/>
      </g>
     </g>
    </g>
    <g id="xtick_7">
     <g id="line2d_13">
      <path d="M 249.714892 127.223042 
L 249.714892 7.2 
" clip-path="url(#p3f66a8b373)" style="fill: none; stroke: #b0b0b0; stroke-width: 0.25; stroke-linecap: square"/>
     </g>
     <g id="line2d_14">
      <g>
       <use xlink:href="#mf48eb6323d" x="249.714892" y="127.223042" style="stroke: #000000; stroke-width: 0.8"/>
      </g>
     </g>
     <g id="text_7">
      <!-- $\mathdefault{6}$ -->
      <g transform="translate(247.776186 139.191866)scale(0.07 -0.07)">
       <use xlink:href="#NimbusSanL-Regu-36" transform="scale(0.996264)"/>
      </g>
     </g>
    </g>
    <g id="text_8">
     <!-- $x$ -->
     <g transform="translate(141.08243 151.065735)scale(0.09 -0.09)">
      <defs>
       <path id="NimbusSanL-ReguItal-78" d="M 2240 1695 
L 3731 3328 
L 3110 3328 
L 2042 2108 
L 1478 3328 
L 883 3328 
L 1638 1695 
L 109 0 
L 736 0 
L 1850 1270 
L 2426 0 
L 3027 0 
L 2240 1695 
z
" transform="scale(0.015625)"/>
      </defs>
      <use xlink:href="#NimbusSanL-ReguItal-78" transform="scale(0.996264)"/>
     </g>
    </g>
   </g>
   <g id="matplotlib.axis_2">
    <g id="ytick_1">
     <g id="line2d_15">
      <path d="M 36.933156 114.244122 
L 249.714892 114.244122 
" clip-path="url(#p3f66a8b373)" style="fill: none; stroke: #b0b0b0; stroke-width: 0.25; stroke-linecap: square"/>
     </g>
     <g id="line2d_16">
      <defs>
       <path id="mc647b9fcce" d="M 0 0 
L -3.5 0 
" style="stroke: #000000; stroke-width: 0.8"/>
      </defs>
      <g>
       <use xlink:href="#mc647b9fcce" x="36.933156" y="114.244122" style="stroke: #000000; stroke-width: 0.8"/>
      </g>
     </g>
     <g id="text_9">
      <!-- $\mathdefault{0.0}$ -->
      <g transform="translate(20.239679 116.728534)scale(0.07 -0.07)">
       <defs>
        <path id="NimbusSanL-Regu-2e" d="M 1222 665 
L 557 665 
L 557 0 
L 1222 0 
L 1222 665 
z
" transform="scale(0.015625)"/>
       </defs>
       <use xlink:href="#NimbusSanL-Regu-30" transform="scale(0.996264)"/>
       <use xlink:href="#NimbusSanL-Regu-2e" transform="translate(55.391677 0)scale(0.996264)"/>
       <use xlink:href="#NimbusSanL-Regu-30" transform="translate(83.086847 0)scale(0.996264)"/>
      </g>
     </g>
    </g>
    <g id="ytick_2">
     <g id="line2d_17">
      <path d="M 36.933156 85.061874 
L 249.714892 85.061874 
" clip-path="url(#p3f66a8b373)" style="fill: none; stroke: #b0b0b0; stroke-width: 0.25; stroke-linecap: square"/>
     </g>
     <g id="line2d_18">
      <g>
       <use xlink:href="#mc647b9fcce" x="36.933156" y="85.061874" style="stroke: #000000; stroke-width: 0.8"/>
      </g>
     </g>
     <g id="text_10">
      <!-- $\mathdefault{0.5}$ -->
      <g transform="translate(20.239679 87.546286)scale(0.07 -0.07)">
       <defs>
        <path id="NimbusSanL-Regu-35" d="M 3046 4544 
L 704 4544 
L 365 2076 
L 883 2076 
C 1146 2387 1363 2496 1715 2496 
C 2323 2496 2707 2082 2707 1414 
C 2707 765 2330 371 1715 371 
C 1222 371 922 619 787 1128 
L 224 1128 
C 301 759 365 581 499 415 
C 755 70 1216 -128 1728 -128 
C 2643 -128 3283 536 3283 1490 
C 3283 2381 2688 2995 1818 2995 
C 1498 2995 1242 2912 979 2720 
L 1158 3987 
L 3046 3987 
L 3046 4544 
z
" transform="scale(0.015625)"/>
       </defs>
       <use xlink:href="#NimbusSanL-Regu-30" transform="scale(0.996264)"/>
       <use xlink:href="#NimbusSanL-Regu-2e" transform="translate(55.391677 0)scale(0.996264)"/>
       <use xlink:href="#NimbusSanL-Regu-35" transform="translate(83.086847 0)scale(0.996264)"/>
      </g>
     </g>
    </g>
    <g id="ytick_3">
     <g id="line2d_19">
      <path d="M 36.933156 55.879627 
L 249.714892 55.879627 
" clip-path="url(#p3f66a8b373)" style="fill: none; stroke: #b0b0b0; stroke-width: 0.25; stroke-linecap: square"/>
     </g>
     <g id="line2d_20">
      <g>
       <use xlink:href="#mc647b9fcce" x="36.933156" y="55.879627" style="stroke: #000000; stroke-width: 0.8"/>
      </g>
     </g>
     <g id="text_11">
      <!-- $\mathdefault{1.0}$ -->
      <g transform="translate(20.239679 58.364039)scale(0.07 -0.07)">
       <defs>
        <path id="NimbusSanL-Regu-31" d="M 1658 3232 
L 1658 0 
L 2221 0 
L 2221 4537 
L 1850 4537 
C 1651 3840 1523 3744 653 3635 
L 653 3232 
L 1658 3232 
z
" transform="scale(0.015625)"/>
       </defs>
       <use xlink:href="#NimbusSanL-Regu-31" transform="scale(0.996264)"/>
       <use xlink:href="#NimbusSanL-Regu-2e" transform="translate(55.391677 0)scale(0.996264)"/>
       <use xlink:href="#NimbusSanL-Regu-30" transform="translate(83.086847 0)scale(0.996264)"/>
      </g>
     </g>
    </g>
    <g id="ytick_4">
     <g id="line2d_21">
      <path d="M 36.933156 26.69738 
L 249.714892 26.69738 
" clip-path="url(#p3f66a8b373)" style="fill: none; stroke: #b0b0b0; stroke-width: 0.25; stroke-linecap: square"/>
     </g>
     <g id="line2d_22">
      <g>
       <use xlink:href="#mc647b9fcce" x="36.933156" y="26.69738" style="stroke: #000000; stroke-width: 0.8"/>
      </g>
     </g>
     <g id="text_12">
      <!-- $\mathdefault{1.5}$ -->
      <g transform="translate(20.239679 29.181792)scale(0.07 -0.07)">
       <use xlink:href="#NimbusSanL-Regu-31" transform="scale(0.996264)"/>
       <use xlink:href="#NimbusSanL-Regu-2e" transform="translate(55.391677 0)scale(0.996264)"/>
       <use xlink:href="#NimbusSanL-Regu-35" transform="translate(83.086847 0)scale(0.996264)"/>
      </g>
     </g>
    </g>
    <g id="text_13">
     <!-- $\sigma'(x)$ -->
     <g transform="translate(14.329894 76.998025)rotate(-90)scale(0.09 -0.09)">
      <defs>
       <path id="CMMI12-1b" d="M 3251 2406 
C 3334 2406 3546 2406 3546 2611 
C 3546 2752 3424 2752 3309 2752 
L 1894 2752 
C 934 2752 243 1685 243 932 
C 243 389 595 -64 1171 -64 
C 1926 -64 2752 746 2752 1704 
C 2752 1953 2694 2195 2541 2406 
L 3251 2406 
z
M 1178 64 
C 851 64 614 312 614 753 
C 614 1136 845 2406 1786 2406 
C 2061 2406 2368 2272 2368 1780 
C 2368 1557 2266 1021 2042 651 
C 1811 274 1466 64 1178 64 
z
" transform="scale(0.015625)"/>
       <path id="CMSY10-30" d="M 1619 3048 
C 1651 3125 1677 3182 1677 3246 
C 1677 3430 1510 3584 1312 3584 
C 1133 3584 1018 3462 973 3297 
L 211 517 
C 211 505 186 435 186 428 
C 186 358 352 313 403 313 
C 442 313 448 332 486 415 
L 1619 3048 
z
" transform="scale(0.015625)"/>
       <path id="NimbusSanL-Regu-28" d="M 1510 4672 
C 870 3833 467 2668 467 1663 
C 467 652 870 -513 1510 -1351 
L 1862 -1351 
C 1299 -436 986 639 986 1663 
C 986 2681 1299 3763 1862 4672 
L 1510 4672 
z
" transform="scale(0.015625)"/>
       <path id="NimbusSanL-Regu-29" d="M 595 -1351 
C 1235 -513 1638 652 1638 1657 
C 1638 2668 1235 3833 595 4672 
L 243 4672 
C 806 3756 1120 2681 1120 1657 
C 1120 639 806 -442 243 -1351 
L 595 -1351 
z
" transform="scale(0.015625)"/>
      </defs>
      <use xlink:href="#CMMI12-1b" transform="scale(0.996264)"/>
      <use xlink:href="#CMSY10-30" transform="translate(59.020054 36.153639)scale(0.697382)"/>
      <use xlink:href="#NimbusSanL-Regu-28" transform="translate(78.696146 0)scale(0.996264)"/>
      <use xlink:href="#NimbusSanL-ReguItal-78" transform="translate(111.871376 0)scale(0.996264)"/>
      <use xlink:href="#NimbusSanL-Regu-29" transform="translate(171.048874 0)scale(0.996264)"/>
     </g>
    </g>
   </g>
   <g id="line2d_23">
    <path d="M -1 113.788878 
L 112.97227 113.788878 
L 113.327261 100.102404 
L 125.041971 100.102404 
L 125.396962 81.157289 
L 133.206768 81.157289 
L 133.561759 60.863954 
L 152.021316 60.863954 
L 152.376307 76.120432 
L 158.056166 76.120432 
L 158.411157 91.37691 
L 165.510981 91.37691 
L 165.865972 104.631487 
L 176.8707 104.631487 
L 177.225691 113.928951 
L 320.642138 113.928951 
L 320.642138 113.928951 
" clip-path="url(#p3f66a8b373)" style="fill: none; stroke-dasharray: 0.9,1.485; stroke-dashoffset: 0; stroke: #029e73; stroke-width: 0.9"/>
   </g>
   <g id="line2d_24">
    <path d="M -1 114.244101 
L 75.3432 114.135036 
L 85.637948 113.896448 
L 92.027786 113.531577 
L 96.642673 113.049983 
L 100.192588 112.470949 
L 103.387507 111.718464 
L 105.872444 110.924945 
L 108.357385 109.89191 
L 110.487333 108.766722 
L 112.617277 107.369363 
L 114.392234 105.957522 
L 116.167191 104.284201 
L 117.942146 102.313955 
L 119.717101 100.012504 
L 121.492058 97.350015 
L 123.267014 94.305643 
L 125.396962 90.141438 
L 127.526909 85.453334 
L 130.366839 78.569858 
L 135.336715 66.286689 
L 137.111672 62.4957 
L 138.531636 59.943597 
L 139.59661 58.384551 
L 140.661584 57.175937 
L 141.726557 56.350778 
L 142.43654 56.02559 
L 143.146522 55.885475 
L 143.856505 55.932226 
L 144.566487 56.165247 
L 145.276483 56.581575 
L 146.341456 57.537645 
L 147.40643 58.867174 
L 148.471403 60.534258 
L 149.891368 63.206693 
L 151.666324 67.106161 
L 154.151263 73.187171 
L 159.12114 85.453334 
L 161.251087 90.141438 
L 163.381033 94.305638 
L 165.15599 97.350015 
L 166.930947 100.012504 
L 168.705902 102.313955 
L 170.480857 104.284201 
L 172.255813 105.957522 
L 174.03077 107.369363 
L 176.160718 108.766722 
L 178.290666 109.89191 
L 180.775601 110.924945 
L 183.260542 111.718464 
L 186.10047 112.399666 
L 189.65038 113.001715 
L 193.910277 113.472566 
L 199.235146 113.819669 
L 206.689961 114.060655 
L 218.75966 114.197042 
L 248.578921 114.242493 
L 320.642138 114.244122 
L 320.642138 114.244122 
" clip-path="url(#p3f66a8b373)" style="fill: none; stroke: #949494; stroke-width: 1.5; stroke-linecap: square"/>
   </g>
   <g id="line2d_25">
    <path d="M 36.933156 113.788878 
L 113.194131 113.788878 
" clip-path="url(#p3f66a8b373)" style="fill: none; stroke: #029e73; stroke-width: 1.5; stroke-linecap: square"/>
   </g>
   <g id="line2d_26">
    <path d="M 177.090713 113.928953 
L 249.714892 113.928953 
" clip-path="url(#p3f66a8b373)" style="fill: none; stroke: #029e73; stroke-width: 1.5; stroke-linecap: square"/>
   </g>
   <g id="line2d_27">
    <path d="M 113.194131 100.102405 
L 125.141825 100.102405 
" clip-path="url(#p3f66a8b373)" style="fill: none; stroke: #029e73; stroke-width: 1.5; stroke-linecap: square"/>
   </g>
   <g id="line2d_28">
    <path d="M 125.141825 81.15729 
L 133.367612 81.15729 
" clip-path="url(#p3f66a8b373)" style="fill: none; stroke: #029e73; stroke-width: 1.5; stroke-linecap: square"/>
   </g>
   <g id="line2d_29">
    <path d="M 133.367612 60.863955 
L 152.241352 60.863955 
" clip-path="url(#p3f66a8b373)" style="fill: none; stroke: #029e73; stroke-width: 1.5; stroke-linecap: square"/>
   </g>
   <g id="line2d_30">
    <path d="M 152.241352 76.120434 
L 158.388971 76.120434 
" clip-path="url(#p3f66a8b373)" style="fill: none; stroke: #029e73; stroke-width: 1.5; stroke-linecap: square"/>
   </g>
   <g id="line2d_31">
    <path d="M 158.388971 91.376913 
L 165.575674 91.376913 
" clip-path="url(#p3f66a8b373)" style="fill: none; stroke: #029e73; stroke-width: 1.5; stroke-linecap: square"/>
   </g>
   <g id="line2d_32">
    <path d="M 165.575674 104.631489 
L 177.090713 104.631489 
" clip-path="url(#p3f66a8b373)" style="fill: none; stroke: #029e73; stroke-width: 1.5; stroke-linecap: square"/>
   </g>
   <g id="patch_3">
    <path d="M 36.933156 127.223042 
L 36.933156 7.2 
" style="fill: none; stroke: #000000; stroke-width: 0.8; stroke-linejoin: miter; stroke-linecap: square"/>
   </g>
   <g id="patch_4">
    <path d="M 249.714892 127.223042 
L 249.714892 7.2 
" style="fill: none; stroke: #000000; stroke-width: 0.8; stroke-linejoin: miter; stroke-linecap: square"/>
   </g>
   <g id="patch_5">
    <path d="M 36.933156 127.223042 
L 249.714892 127.223042 
" style="fill: none; stroke: #000000; stroke-width: 0.8; stroke-linejoin: miter; stroke-linecap: square"/>
   </g>
   <g id="patch_6">
    <path d="M 36.933156 7.2 
L 249.714892 7.2 
" style="fill: none; stroke: #000000; stroke-width: 0.8; stroke-linejoin: miter; stroke-linecap: square"/>
   </g>
   <g id="legend_1">
    <g id="patch_7">
     <path d="M 197.362294 23.559307 
L 244.814892 23.559307 
Q 246.214892 23.559307 246.214892 22.159307 
L 246.214892 12.1 
Q 246.214892 10.7 244.814892 10.7 
L 197.362294 10.7 
Q 195.962294 10.7 195.962294 12.1 
L 195.962294 22.159307 
Q 195.962294 23.559307 197.362294 23.559307 
z
" style="fill: #ffffff; opacity: 0.8; stroke: #cccccc; stroke-linejoin: miter"/>
    </g>
    <g id="line2d_33">
     <path d="M 198.762294 16.823926 
L 205.762294 16.823926 
L 212.762294 16.823926 
" style="fill: none; stroke: #949494; stroke-width: 1.5; stroke-linecap: square"/>
    </g>
    <g id="text_14">
     <!-- $\mathrm{tanh}'(x)$ -->
     <g transform="translate(218.362294 19.273926)scale(0.07 -0.07)">
      <defs>
       <path id="NimbusSanL-Regu-74" d="M 1626 3328 
L 1075 3328 
L 1075 4249 
L 544 4249 
L 544 3328 
L 90 3328 
L 90 2892 
L 544 2892 
L 544 402 
C 544 64 774 -128 1190 -128 
C 1318 -128 1446 -116 1626 -84 
L 1626 364 
C 1555 345 1472 339 1370 339 
C 1139 339 1075 402 1075 634 
L 1075 2892 
L 1626 2892 
L 1626 3328 
z
" transform="scale(0.015625)"/>
       <path id="NimbusSanL-Regu-61" d="M 3424 332 
C 3366 320 3341 320 3309 320 
C 3123 320 3021 415 3021 581 
L 3021 2542 
C 3021 3135 2586 3456 1760 3456 
C 1274 3456 870 3315 646 3065 
C 493 2893 429 2702 416 2370 
L 954 2370 
C 998 2778 1242 2963 1741 2963 
C 2221 2963 2490 2784 2490 2466 
L 2490 2326 
C 2490 2103 2355 2007 1933 1956 
C 1178 1861 1062 1835 858 1753 
C 467 1593 269 1294 269 861 
C 269 256 691 -128 1370 -128 
C 1792 -128 2131 19 2509 364 
C 2547 25 2714 -128 3059 -128 
C 3168 -128 3251 -116 3424 -71 
L 3424 332 
z
M 2490 1071 
C 2490 893 2438 785 2278 638 
C 2061 441 1798 339 1485 339 
C 1069 339 826 536 826 874 
C 826 1224 1062 1402 1632 1485 
C 2195 1562 2310 1587 2490 1670 
L 2490 1071 
z
" transform="scale(0.015625)"/>
       <path id="NimbusSanL-Regu-6e" d="M 448 3328 
L 448 0 
L 986 0 
L 986 1835 
C 986 2539 1344 2988 1894 2988 
C 2317 2988 2586 2732 2586 2328 
L 2586 0 
L 3117 0 
L 3117 2539 
C 3117 3097 2701 3456 2054 3456 
C 1555 3456 1235 3263 941 2796 
L 941 3328 
L 448 3328 
z
" transform="scale(0.015625)"/>
       <path id="NimbusSanL-Regu-68" d="M 448 4672 
L 448 0 
L 979 0 
L 979 1853 
C 979 2539 1338 2988 1888 2988 
C 2061 2988 2234 2930 2362 2834 
C 2515 2725 2579 2565 2579 2328 
L 2579 0 
L 3110 0 
L 3110 2539 
C 3110 3103 2707 3456 2054 3456 
C 1581 3456 1293 3308 979 2898 
L 979 4672 
L 448 4672 
z
" transform="scale(0.015625)"/>
      </defs>
      <use xlink:href="#NimbusSanL-Regu-74" transform="scale(0.996264)"/>
      <use xlink:href="#NimbusSanL-Regu-61" transform="translate(27.69517 0)scale(0.996264)"/>
      <use xlink:href="#NimbusSanL-Regu-6e" transform="translate(83.086847 0)scale(0.996264)"/>
      <use xlink:href="#NimbusSanL-Regu-68" transform="translate(138.478524 0)scale(0.996264)"/>
      <use xlink:href="#CMSY10-30" transform="translate(193.8702 45.052702)scale(0.697382)"/>
      <use xlink:href="#NimbusSanL-Regu-28" transform="translate(213.546293 0)scale(0.996264)"/>
      <use xlink:href="#NimbusSanL-ReguItal-78" transform="translate(246.721523 0)scale(0.996264)"/>
      <use xlink:href="#NimbusSanL-Regu-29" transform="translate(305.899021 0)scale(0.996264)"/>
     </g>
    </g>
   </g>
  </g>
  <g id="axes_2">
   <g id="patch_8">
    <path d="M 262.706117 127.223042 
L 475.487853 127.223042 
L 475.487853 7.2 
L 262.706117 7.2 
z
" style="fill: #ffffff"/>
   </g>
   <g id="matplotlib.axis_3">
    <g id="xtick_8">
     <g id="line2d_34">
      <path d="M 262.706117 127.223042 
L 262.706117 7.2 
" clip-path="url(#pec5ff6475b)" style="fill: none; stroke: #b0b0b0; stroke-width: 0.25; stroke-linecap: square"/>
     </g>
     <g id="line2d_35">
      <g>
       <use xlink:href="#mf48eb6323d" x="262.706117" y="127.223042" style="stroke: #000000; stroke-width: 0.8"/>
      </g>
     </g>
     <g id="text_15">
      <!-- $\mathdefault{−6}$ -->
      <g transform="translate(257.654078 139.191866)scale(0.07 -0.07)">
       <use xlink:href="#CMSY10-0" transform="scale(0.996264)"/>
       <use xlink:href="#NimbusSanL-Regu-36" transform="translate(77.487468 0)scale(0.996264)"/>
      </g>
     </g>
    </g>
    <g id="xtick_9">
     <g id="line2d_36">
      <path d="M 298.16974 127.223042 
L 298.16974 7.2 
" clip-path="url(#pec5ff6475b)" style="fill: none; stroke: #b0b0b0; stroke-width: 0.25; stroke-linecap: square"/>
     </g>
     <g id="line2d_37">
      <g>
       <use xlink:href="#mf48eb6323d" x="298.16974" y="127.223042" style="stroke: #000000; stroke-width: 0.8"/>
      </g>
     </g>
     <g id="text_16">
      <!-- $\mathdefault{−4}$ -->
      <g transform="translate(293.117701 139.191866)scale(0.07 -0.07)">
       <use xlink:href="#CMSY10-0" transform="scale(0.996264)"/>
       <use xlink:href="#NimbusSanL-Regu-34" transform="translate(77.487468 0)scale(0.996264)"/>
      </g>
     </g>
    </g>
    <g id="xtick_10">
     <g id="line2d_38">
      <path d="M 333.633363 127.223042 
L 333.633363 7.2 
" clip-path="url(#pec5ff6475b)" style="fill: none; stroke: #b0b0b0; stroke-width: 0.25; stroke-linecap: square"/>
     </g>
     <g id="line2d_39">
      <g>
       <use xlink:href="#mf48eb6323d" x="333.633363" y="127.223042" style="stroke: #000000; stroke-width: 0.8"/>
      </g>
     </g>
     <g id="text_17">
      <!-- $\mathdefault{−2}$ -->
      <g transform="translate(328.581324 139.191866)scale(0.07 -0.07)">
       <use xlink:href="#CMSY10-0" transform="scale(0.996264)"/>
       <use xlink:href="#NimbusSanL-Regu-32" transform="translate(77.487468 0)scale(0.996264)"/>
      </g>
     </g>
    </g>
    <g id="xtick_11">
     <g id="line2d_40">
      <path d="M 369.096985 127.223042 
L 369.096985 7.2 
" clip-path="url(#pec5ff6475b)" style="fill: none; stroke: #b0b0b0; stroke-width: 0.25; stroke-linecap: square"/>
     </g>
     <g id="line2d_41">
      <g>
       <use xlink:href="#mf48eb6323d" x="369.096985" y="127.223042" style="stroke: #000000; stroke-width: 0.8"/>
      </g>
     </g>
     <g id="text_18">
      <!-- $\mathdefault{0}$ -->
      <g transform="translate(367.158279 139.191866)scale(0.07 -0.07)">
       <use xlink:href="#NimbusSanL-Regu-30" transform="scale(0.996264)"/>
      </g>
     </g>
    </g>
    <g id="xtick_12">
     <g id="line2d_42">
      <path d="M 404.560608 127.223042 
L 404.560608 7.2 
" clip-path="url(#pec5ff6475b)" style="fill: none; stroke: #b0b0b0; stroke-width: 0.25; stroke-linecap: square"/>
     </g>
     <g id="line2d_43">
      <g>
       <use xlink:href="#mf48eb6323d" x="404.560608" y="127.223042" style="stroke: #000000; stroke-width: 0.8"/>
      </g>
     </g>
     <g id="text_19">
      <!-- $\mathdefault{2}$ -->
      <g transform="translate(402.621902 139.191866)scale(0.07 -0.07)">
       <use xlink:href="#NimbusSanL-Regu-32" transform="scale(0.996264)"/>
      </g>
     </g>
    </g>
    <g id="xtick_13">
     <g id="line2d_44">
      <path d="M 440.02423 127.223042 
L 440.02423 7.2 
" clip-path="url(#pec5ff6475b)" style="fill: none; stroke: #b0b0b0; stroke-width: 0.25; stroke-linecap: square"/>
     </g>
     <g id="line2d_45">
      <g>
       <use xlink:href="#mf48eb6323d" x="440.02423" y="127.223042" style="stroke: #000000; stroke-width: 0.8"/>
      </g>
     </g>
     <g id="text_20">
      <!-- $\mathdefault{4}$ -->
      <g transform="translate(438.085524 139.191866)scale(0.07 -0.07)">
       <use xlink:href="#NimbusSanL-Regu-34" transform="scale(0.996264)"/>
      </g>
     </g>
    </g>
    <g id="xtick_14">
     <g id="line2d_46">
      <path d="M 475.487853 127.223042 
L 475.487853 7.2 
" clip-path="url(#pec5ff6475b)" style="fill: none; stroke: #b0b0b0; stroke-width: 0.25; stroke-linecap: square"/>
     </g>
     <g id="line2d_47">
      <g>
       <use xlink:href="#mf48eb6323d" x="475.487853" y="127.223042" style="stroke: #000000; stroke-width: 0.8"/>
      </g>
     </g>
     <g id="text_21">
      <!-- $\mathdefault{6}$ -->
      <g transform="translate(473.549147 139.191866)scale(0.07 -0.07)">
       <use xlink:href="#NimbusSanL-Regu-36" transform="scale(0.996264)"/>
      </g>
     </g>
    </g>
    <g id="text_22">
     <!-- $x$ -->
     <g transform="translate(366.855391 151.065735)scale(0.09 -0.09)">
      <use xlink:href="#NimbusSanL-ReguItal-78" transform="scale(0.996264)"/>
     </g>
    </g>
   </g>
   <g id="matplotlib.axis_4">
    <g id="ytick_5">
     <g id="line2d_48">
      <path d="M 262.706117 114.244122 
L 475.487853 114.244122 
" clip-path="url(#pec5ff6475b)" style="fill: none; stroke: #b0b0b0; stroke-width: 0.25; stroke-linecap: square"/>
     </g>
     <g id="line2d_49">
      <g>
       <use xlink:href="#mc647b9fcce" x="262.706117" y="114.244122" style="stroke: #000000; stroke-width: 0.8"/>
      </g>
     </g>
    </g>
    <g id="ytick_6">
     <g id="line2d_50">
      <path d="M 262.706117 85.061874 
L 475.487853 85.061874 
" clip-path="url(#pec5ff6475b)" style="fill: none; stroke: #b0b0b0; stroke-width: 0.25; stroke-linecap: square"/>
     </g>
     <g id="line2d_51">
      <g>
       <use xlink:href="#mc647b9fcce" x="262.706117" y="85.061874" style="stroke: #000000; stroke-width: 0.8"/>
      </g>
     </g>
    </g>
    <g id="ytick_7">
     <g id="line2d_52">
      <path d="M 262.706117 55.879627 
L 475.487853 55.879627 
" clip-path="url(#pec5ff6475b)" style="fill: none; stroke: #b0b0b0; stroke-width: 0.25; stroke-linecap: square"/>
     </g>
     <g id="line2d_53">
      <g>
       <use xlink:href="#mc647b9fcce" x="262.706117" y="55.879627" style="stroke: #000000; stroke-width: 0.8"/>
      </g>
     </g>
    </g>
    <g id="ytick_8">
     <g id="line2d_54">
      <path d="M 262.706117 26.69738 
L 475.487853 26.69738 
" clip-path="url(#pec5ff6475b)" style="fill: none; stroke: #b0b0b0; stroke-width: 0.25; stroke-linecap: square"/>
     </g>
     <g id="line2d_55">
      <g>
       <use xlink:href="#mc647b9fcce" x="262.706117" y="26.69738" style="stroke: #000000; stroke-width: 0.8"/>
      </g>
     </g>
    </g>
   </g>
   <g id="line2d_56">
    <path d="M 191.778872 114.255444 
L 325.965548 114.255444 
L 326.320539 119.396488 
L 356.494791 119.396488 
L 356.849782 106.908648 
L 363.239624 106.908648 
L 363.594615 92.514178 
L 368.919483 92.514178 
L 369.274474 77.599897 
L 374.599355 77.599897 
L 374.954346 63.207263 
L 381.344189 63.207263 
L 381.69918 50.723239 
L 411.873431 50.723239 
L 412.228422 55.868251 
L 546.415098 55.868251 
L 546.415098 55.868251 
" clip-path="url(#pec5ff6475b)" style="fill: none; stroke-dasharray: 0.9,1.485; stroke-dashoffset: 0; stroke: #cc78bc; stroke-width: 0.9"/>
   </g>
   <g id="line2d_57">
    <path d="M 191.778872 114.244122 
L 304.666075 114.35087 
L 311.410909 114.592034 
L 316.380783 114.99169 
L 320.285688 115.521638 
L 323.835598 116.218732 
L 327.385512 117.142935 
L 331.290413 118.394797 
L 339.455213 121.108668 
L 341.585161 121.561153 
L 343.360116 121.751189 
L 345.135071 121.717547 
L 346.555035 121.495134 
L 347.975001 121.071157 
L 349.394965 120.421562 
L 350.814931 119.524772 
L 352.234897 118.362606 
L 353.654862 116.92119 
L 355.074827 115.191773 
L 356.849782 112.621107 
L 358.624738 109.604588 
L 360.399693 106.166867 
L 362.529641 101.544524 
L 365.01458 95.596083 
L 368.564492 86.45992 
L 373.889373 72.777359 
L 376.374311 66.983269 
L 378.504258 62.533515 
L 380.279216 59.260254 
L 382.054171 56.420051 
L 383.829127 54.03094 
L 385.249092 52.446265 
L 386.669057 51.145913 
L 388.089021 50.118457 
L 389.508985 49.347772 
L 390.928951 48.813861 
L 392.348917 48.493791 
L 394.123872 48.356302 
L 395.898829 48.46301 
L 398.028773 48.841705 
L 400.513712 49.523855 
L 404.773607 50.980809 
L 410.098476 52.769557 
L 413.648386 53.738429 
L 417.1983 54.480275 
L 421.103201 55.05198 
L 425.363098 55.44269 
L 430.687967 55.70056 
L 438.852764 55.842133 
L 458.377278 55.879279 
L 546.415098 55.879627 
L 546.415098 55.879627 
" clip-path="url(#pec5ff6475b)" style="fill: none; stroke: #0173b2; stroke-width: 1.5; stroke-linecap: square"/>
   </g>
   <g id="line2d_58">
    <path d="M 262.706117 114.255444 
L 326.246624 114.255444 
" clip-path="url(#pec5ff6475b)" style="fill: none; stroke: #cc78bc; stroke-width: 1.5; stroke-linecap: square"/>
   </g>
   <g id="line2d_59">
    <path d="M 411.910069 55.868249 
L 475.487853 55.868249 
" clip-path="url(#pec5ff6475b)" style="fill: none; stroke: #cc78bc; stroke-width: 1.5; stroke-linecap: square"/>
   </g>
   <g id="line2d_60">
    <path d="M 326.246624 119.396488 
L 356.507257 119.396488 
" clip-path="url(#pec5ff6475b)" style="fill: none; stroke: #cc78bc; stroke-width: 1.5; stroke-linecap: square"/>
   </g>
   <g id="line2d_61">
    <path d="M 356.507257 106.908648 
L 363.319242 106.908648 
" clip-path="url(#pec5ff6475b)" style="fill: none; stroke: #cc78bc; stroke-width: 1.5; stroke-linecap: square"/>
   </g>
   <g id="line2d_62">
    <path d="M 363.319242 92.514179 
L 369.098881 92.514179 
" clip-path="url(#pec5ff6475b)" style="fill: none; stroke: #cc78bc; stroke-width: 1.5; stroke-linecap: square"/>
   </g>
   <g id="line2d_63">
    <path d="M 369.098881 77.599894 
L 374.878569 77.599894 
" clip-path="url(#pec5ff6475b)" style="fill: none; stroke: #cc78bc; stroke-width: 1.5; stroke-linecap: square"/>
   </g>
   <g id="line2d_64">
    <path d="M 374.878569 63.207259 
L 381.690842 63.207259 
" clip-path="url(#pec5ff6475b)" style="fill: none; stroke: #cc78bc; stroke-width: 1.5; stroke-linecap: square"/>
   </g>
   <g id="line2d_65">
    <path d="M 381.690842 50.723238 
L 411.910069 50.723238 
" clip-path="url(#pec5ff6475b)" style="fill: none; stroke: #cc78bc; stroke-width: 1.5; stroke-linecap: square"/>
   </g>
   <g id="patch_9">
    <path d="M 262.706117 127.223042 
L 262.706117 7.2 
" style="fill: none; stroke: #000000; stroke-width: 0.8; stroke-linejoin: miter; stroke-linecap: square"/>
   </g>
   <g id="patch_10">
    <path d="M 475.487853 127.223042 
L 475.487853 7.2 
" style="fill: none; stroke: #000000; stroke-width: 0.8; stroke-linejoin: miter; stroke-linecap: square"/>
   </g>
   <g id="patch_11">
    <path d="M 262.706117 127.223042 
L 475.487853 127.223042 
" style="fill: none; stroke: #000000; stroke-width: 0.8; stroke-linejoin: miter; stroke-linecap: square"/>
   </g>
   <g id="patch_12">
    <path d="M 262.706117 7.2 
L 475.487853 7.2 
" style="fill: none; stroke: #000000; stroke-width: 0.8; stroke-linejoin: miter; stroke-linecap: square"/>
   </g>
   <g id="legend_2">
    <g id="patch_13">
     <path d="M 417.716564 23.559307 
L 470.587853 23.559307 
Q 471.987853 23.559307 471.987853 22.159307 
L 471.987853 12.1 
Q 471.987853 10.7 470.587853 10.7 
L 417.716564 10.7 
Q 416.316564 10.7 416.316564 12.1 
L 416.316564 22.159307 
Q 416.316564 23.559307 417.716564 23.559307 
z
" style="fill: #ffffff; opacity: 0.8; stroke: #cccccc; stroke-linejoin: miter"/>
    </g>
    <g id="line2d_66">
     <path d="M 419.116564 16.823926 
L 426.116564 16.823926 
L 433.116564 16.823926 
" style="fill: none; stroke: #0173b2; stroke-width: 1.5; stroke-linecap: square"/>
    </g>
    <g id="text_23">
     <!-- $\mathrm{GELU}'(x)$ -->
     <g transform="translate(438.716564 19.273926)scale(0.07 -0.07)">
      <defs>
       <path id="NimbusSanL-Regu-47" d="M 4538 2496 
L 2592 2496 
L 2592 1971 
L 4013 1971 
L 4013 1842 
C 4013 1003 3398 396 2547 396 
C 2074 396 1645 571 1370 874 
C 1062 1209 877 1771 877 2348 
C 877 3472 1530 4211 2515 4211 
C 3226 4211 3738 3854 3866 3265 
L 4474 3265 
C 4307 4192 3590 4736 2522 4736 
C 1952 4736 1491 4588 1126 4287 
C 589 3848 282 3140 282 2316 
C 282 874 1158 -128 2419 -128 
C 3053 -128 3558 108 4013 616 
L 4160 -7 
L 4538 -7 
L 4538 2496 
z
" transform="scale(0.015625)"/>
       <path id="NimbusSanL-Regu-45" d="M 1171 2112 
L 3712 2112 
L 3712 2636 
L 1171 2636 
L 1171 4147 
L 3808 4147 
L 3808 4672 
L 576 4672 
L 576 0 
L 3923 0 
L 3923 524 
L 1171 524 
L 1171 2112 
z
" transform="scale(0.015625)"/>
       <path id="NimbusSanL-Regu-4c" d="M 1107 4672 
L 512 4672 
L 512 0 
L 3411 0 
L 3411 524 
L 1107 524 
L 1107 4672 
z
" transform="scale(0.015625)"/>
       <path id="NimbusSanL-Regu-55" d="M 3533 4672 
L 3533 1404 
C 3533 779 3078 396 2330 396 
C 1984 396 1702 479 1478 639 
C 1248 817 1139 1053 1139 1404 
L 1139 4672 
L 544 4672 
L 544 1404 
C 544 460 1222 -128 2330 -128 
C 3424 -128 4128 473 4128 1404 
L 4128 4672 
L 3533 4672 
z
" transform="scale(0.015625)"/>
      </defs>
      <use xlink:href="#NimbusSanL-Regu-47" transform="scale(0.996264)"/>
      <use xlink:href="#NimbusSanL-Regu-45" transform="translate(77.50837 0)scale(0.996264)"/>
      <use xlink:href="#NimbusSanL-Regu-4c" transform="translate(143.958401 0)scale(0.996264)"/>
      <use xlink:href="#NimbusSanL-Regu-55" transform="translate(199.350078 0)scale(0.996264)"/>
      <use xlink:href="#CMSY10-30" transform="translate(271.280063 46.498209)scale(0.697382)"/>
      <use xlink:href="#NimbusSanL-Regu-28" transform="translate(290.956156 0)scale(0.996264)"/>
      <use xlink:href="#NimbusSanL-ReguItal-78" transform="translate(324.131385 0)scale(0.996264)"/>
      <use xlink:href="#NimbusSanL-Regu-29" transform="translate(383.308884 0)scale(0.996264)"/>
     </g>
    </g>
   </g>
  </g>
  <g id="axes_3">
   <g id="patch_14">
    <path d="M 488.479078 127.223042 
L 701.260814 127.223042 
L 701.260814 7.2 
L 488.479078 7.2 
z
" style="fill: #ffffff"/>
   </g>
   <g id="matplotlib.axis_5">
    <g id="xtick_15">
     <g id="line2d_67">
      <path d="M 488.479078 127.223042 
L 488.479078 7.2 
" clip-path="url(#p5af78034e0)" style="fill: none; stroke: #b0b0b0; stroke-width: 0.25; stroke-linecap: square"/>
     </g>
     <g id="line2d_68">
      <g>
       <use xlink:href="#mf48eb6323d" x="488.479078" y="127.223042" style="stroke: #000000; stroke-width: 0.8"/>
      </g>
     </g>
     <g id="text_24">
      <!-- $\mathdefault{−6}$ -->
      <g transform="translate(483.427039 139.191866)scale(0.07 -0.07)">
       <use xlink:href="#CMSY10-0" transform="scale(0.996264)"/>
       <use xlink:href="#NimbusSanL-Regu-36" transform="translate(77.487468 0)scale(0.996264)"/>
      </g>
     </g>
    </g>
    <g id="xtick_16">
     <g id="line2d_69">
      <path d="M 523.942701 127.223042 
L 523.942701 7.2 
" clip-path="url(#p5af78034e0)" style="fill: none; stroke: #b0b0b0; stroke-width: 0.25; stroke-linecap: square"/>
     </g>
     <g id="line2d_70">
      <g>
       <use xlink:href="#mf48eb6323d" x="523.942701" y="127.223042" style="stroke: #000000; stroke-width: 0.8"/>
      </g>
     </g>
     <g id="text_25">
      <!-- $\mathdefault{−4}$ -->
      <g transform="translate(518.890662 139.191866)scale(0.07 -0.07)">
       <use xlink:href="#CMSY10-0" transform="scale(0.996264)"/>
       <use xlink:href="#NimbusSanL-Regu-34" transform="translate(77.487468 0)scale(0.996264)"/>
      </g>
     </g>
    </g>
    <g id="xtick_17">
     <g id="line2d_71">
      <path d="M 559.406323 127.223042 
L 559.406323 7.2 
" clip-path="url(#p5af78034e0)" style="fill: none; stroke: #b0b0b0; stroke-width: 0.25; stroke-linecap: square"/>
     </g>
     <g id="line2d_72">
      <g>
       <use xlink:href="#mf48eb6323d" x="559.406323" y="127.223042" style="stroke: #000000; stroke-width: 0.8"/>
      </g>
     </g>
     <g id="text_26">
      <!-- $\mathdefault{−2}$ -->
      <g transform="translate(554.354285 139.191866)scale(0.07 -0.07)">
       <use xlink:href="#CMSY10-0" transform="scale(0.996264)"/>
       <use xlink:href="#NimbusSanL-Regu-32" transform="translate(77.487468 0)scale(0.996264)"/>
      </g>
     </g>
    </g>
    <g id="xtick_18">
     <g id="line2d_73">
      <path d="M 594.869946 127.223042 
L 594.869946 7.2 
" clip-path="url(#p5af78034e0)" style="fill: none; stroke: #b0b0b0; stroke-width: 0.25; stroke-linecap: square"/>
     </g>
     <g id="line2d_74">
      <g>
       <use xlink:href="#mf48eb6323d" x="594.869946" y="127.223042" style="stroke: #000000; stroke-width: 0.8"/>
      </g>
     </g>
     <g id="text_27">
      <!-- $\mathdefault{0}$ -->
      <g transform="translate(592.93124 139.191866)scale(0.07 -0.07)">
       <use xlink:href="#NimbusSanL-Regu-30" transform="scale(0.996264)"/>
      </g>
     </g>
    </g>
    <g id="xtick_19">
     <g id="line2d_75">
      <path d="M 630.333569 127.223042 
L 630.333569 7.2 
" clip-path="url(#p5af78034e0)" style="fill: none; stroke: #b0b0b0; stroke-width: 0.25; stroke-linecap: square"/>
     </g>
     <g id="line2d_76">
      <g>
       <use xlink:href="#mf48eb6323d" x="630.333569" y="127.223042" style="stroke: #000000; stroke-width: 0.8"/>
      </g>
     </g>
     <g id="text_28">
      <!-- $\mathdefault{2}$ -->
      <g transform="translate(628.394862 139.191866)scale(0.07 -0.07)">
       <use xlink:href="#NimbusSanL-Regu-32" transform="scale(0.996264)"/>
      </g>
     </g>
    </g>
    <g id="xtick_20">
     <g id="line2d_77">
      <path d="M 665.797191 127.223042 
L 665.797191 7.2 
" clip-path="url(#p5af78034e0)" style="fill: none; stroke: #b0b0b0; stroke-width: 0.25; stroke-linecap: square"/>
     </g>
     <g id="line2d_78">
      <g>
       <use xlink:href="#mf48eb6323d" x="665.797191" y="127.223042" style="stroke: #000000; stroke-width: 0.8"/>
      </g>
     </g>
     <g id="text_29">
      <!-- $\mathdefault{4}$ -->
      <g transform="translate(663.858485 139.191866)scale(0.07 -0.07)">
       <use xlink:href="#NimbusSanL-Regu-34" transform="scale(0.996264)"/>
      </g>
     </g>
    </g>
    <g id="xtick_21">
     <g id="line2d_79">
      <path d="M 701.260814 127.223042 
L 701.260814 7.2 
" clip-path="url(#p5af78034e0)" style="fill: none; stroke: #b0b0b0; stroke-width: 0.25; stroke-linecap: square"/>
     </g>
     <g id="line2d_80">
      <g>
       <use xlink:href="#mf48eb6323d" x="701.260814" y="127.223042" style="stroke: #000000; stroke-width: 0.8"/>
      </g>
     </g>
     <g id="text_30">
      <!-- $\mathdefault{6}$ -->
      <g transform="translate(699.322108 139.191866)scale(0.07 -0.07)">
       <use xlink:href="#NimbusSanL-Regu-36" transform="scale(0.996264)"/>
      </g>
     </g>
    </g>
    <g id="text_31">
     <!-- $x$ -->
     <g transform="translate(592.628352 151.065735)scale(0.09 -0.09)">
      <use xlink:href="#NimbusSanL-ReguItal-78" transform="scale(0.996264)"/>
     </g>
    </g>
   </g>
   <g id="matplotlib.axis_6">
    <g id="ytick_9">
     <g id="line2d_81">
      <path d="M 488.479078 114.244122 
L 701.260814 114.244122 
" clip-path="url(#p5af78034e0)" style="fill: none; stroke: #b0b0b0; stroke-width: 0.25; stroke-linecap: square"/>
     </g>
     <g id="line2d_82">
      <g>
       <use xlink:href="#mc647b9fcce" x="488.479078" y="114.244122" style="stroke: #000000; stroke-width: 0.8"/>
      </g>
     </g>
    </g>
    <g id="ytick_10">
     <g id="line2d_83">
      <path d="M 488.479078 85.061874 
L 701.260814 85.061874 
" clip-path="url(#p5af78034e0)" style="fill: none; stroke: #b0b0b0; stroke-width: 0.25; stroke-linecap: square"/>
     </g>
     <g id="line2d_84">
      <g>
       <use xlink:href="#mc647b9fcce" x="488.479078" y="85.061874" style="stroke: #000000; stroke-width: 0.8"/>
      </g>
     </g>
    </g>
    <g id="ytick_11">
     <g id="line2d_85">
      <path d="M 488.479078 55.879627 
L 701.260814 55.879627 
" clip-path="url(#p5af78034e0)" style="fill: none; stroke: #b0b0b0; stroke-width: 0.25; stroke-linecap: square"/>
     </g>
     <g id="line2d_86">
      <g>
       <use xlink:href="#mc647b9fcce" x="488.479078" y="55.879627" style="stroke: #000000; stroke-width: 0.8"/>
      </g>
     </g>
    </g>
    <g id="ytick_12">
     <g id="line2d_87">
      <path d="M 488.479078 26.69738 
L 701.260814 26.69738 
" clip-path="url(#p5af78034e0)" style="fill: none; stroke: #b0b0b0; stroke-width: 0.25; stroke-linecap: square"/>
     </g>
     <g id="line2d_88">
      <g>
       <use xlink:href="#mc647b9fcce" x="488.479078" y="26.69738" style="stroke: #000000; stroke-width: 0.8"/>
      </g>
     </g>
    </g>
   </g>
   <g id="line2d_89">
    <path d="M 417.551833 113.561257 
L 540.023797 113.561257 
L 540.378788 105.495284 
L 560.258297 105.495284 
L 560.613288 93.764019 
L 571.618014 93.764019 
L 571.973005 79.242936 
L 579.427822 79.242936 
L 579.782813 62.311394 
L 585.462672 62.311394 
L 585.817663 43.389619 
L 590.432549 43.389619 
L 590.78754 22.769445 
L 594.692444 22.769445 
L 595.047435 52.920543 
L 711.39952 52.920543 
L 711.39952 52.920543 
" clip-path="url(#p5af78034e0)" style="fill: none; stroke-dasharray: 0.9,1.485; stroke-dashoffset: 0; stroke: #56b4e9; stroke-width: 0.9"/>
   </g>
   <g id="line2d_90">
    <path d="M 417.551833 114.239463 
L 476.480374 114.114836 
L 495.649896 113.863007 
L 507.719599 113.491335 
L 516.594374 113.002366 
L 523.694203 112.390898 
L 529.374063 111.691178 
L 534.343937 110.865299 
L 538.603833 109.947764 
L 542.508734 108.889352 
L 546.058649 107.702481 
L 549.253568 106.410946 
L 552.448491 104.864415 
L 555.288419 103.235172 
L 557.773356 101.579042 
L 560.258297 99.673769 
L 562.743235 97.481878 
L 565.228174 94.960251 
L 567.358122 92.499004 
L 569.488068 89.723628 
L 571.618014 86.594021 
L 573.747962 83.064973 
L 575.87791 79.085506 
L 578.007857 74.598136 
L 580.137804 69.538027 
L 582.267751 63.832083 
L 584.397699 57.397885 
L 586.527646 50.142468 
L 588.657593 41.961024 
L 590.78754 32.735371 
L 592.917488 22.332223 
L 594.692444 12.655593 
L 595.047435 52.920488 
L 711.39952 52.920488 
L 711.39952 52.920488 
" clip-path="url(#p5af78034e0)" style="fill: none; stroke: #ece133; stroke-width: 1.5; stroke-linecap: square"/>
   </g>
   <g id="line2d_91">
    <path d="M 488.479078 113.561257 
L 540.236462 113.561257 
" clip-path="url(#p5af78034e0)" style="fill: none; stroke: #56b4e9; stroke-width: 1.5; stroke-linecap: square"/>
   </g>
   <g id="line2d_92">
    <path d="M 594.869946 52.920547 
L 701.260814 52.920547 
" clip-path="url(#p5af78034e0)" style="fill: none; stroke: #56b4e9; stroke-width: 1.5; stroke-linecap: square"/>
   </g>
   <g id="line2d_93">
    <path d="M 540.236462 105.495284 
L 560.324831 105.495284 
" clip-path="url(#p5af78034e0)" style="fill: none; stroke: #56b4e9; stroke-width: 1.5; stroke-linecap: square"/>
   </g>
   <g id="line2d_94">
    <path d="M 560.324831 93.76402 
L 571.666098 93.76402 
" clip-path="url(#p5af78034e0)" style="fill: none; stroke: #56b4e9; stroke-width: 1.5; stroke-linecap: square"/>
   </g>
   <g id="line2d_95">
    <path d="M 571.666098 79.242934 
L 579.631227 79.242934 
" clip-path="url(#p5af78034e0)" style="fill: none; stroke: #56b4e9; stroke-width: 1.5; stroke-linecap: square"/>
   </g>
   <g id="line2d_96">
    <path d="M 579.631227 62.311394 
L 585.778846 62.311394 
" clip-path="url(#p5af78034e0)" style="fill: none; stroke: #56b4e9; stroke-width: 1.5; stroke-linecap: square"/>
   </g>
   <g id="line2d_97">
    <path d="M 585.778846 43.389625 
L 590.713609 43.389625 
" clip-path="url(#p5af78034e0)" style="fill: none; stroke: #56b4e9; stroke-width: 1.5; stroke-linecap: square"/>
   </g>
   <g id="line2d_98">
    <path d="M 590.713609 22.769449 
L 594.869946 22.769449 
" clip-path="url(#p5af78034e0)" style="fill: none; stroke: #56b4e9; stroke-width: 1.5; stroke-linecap: square"/>
   </g>
   <g id="patch_15">
    <path d="M 488.479078 127.223042 
L 488.479078 7.2 
" style="fill: none; stroke: #000000; stroke-width: 0.8; stroke-linejoin: miter; stroke-linecap: square"/>
   </g>
   <g id="patch_16">
    <path d="M 701.260814 127.223042 
L 701.260814 7.2 
" style="fill: none; stroke: #000000; stroke-width: 0.8; stroke-linejoin: miter; stroke-linecap: square"/>
   </g>
   <g id="patch_17">
    <path d="M 488.479078 127.223042 
L 701.260814 127.223042 
" style="fill: none; stroke: #000000; stroke-width: 0.8; stroke-linejoin: miter; stroke-linecap: square"/>
   </g>
   <g id="patch_18">
    <path d="M 488.479078 7.2 
L 701.260814 7.2 
" style="fill: none; stroke: #000000; stroke-width: 0.8; stroke-linejoin: miter; stroke-linecap: square"/>
   </g>
   <g id="legend_3">
    <g id="patch_19">
     <path d="M 644.2636 23.559307 
L 696.360814 23.559307 
Q 697.760814 23.559307 697.760814 22.159307 
L 697.760814 12.1 
Q 697.760814 10.7 696.360814 10.7 
L 644.2636 10.7 
Q 642.8636 10.7 642.8636 12.1 
L 642.8636 22.159307 
Q 642.8636 23.559307 644.2636 23.559307 
z
" style="fill: #ffffff; opacity: 0.8; stroke: #cccccc; stroke-linejoin: miter"/>
    </g>
    <g id="line2d_99">
     <path d="M 645.6636 16.823926 
L 652.6636 16.823926 
L 659.6636 16.823926 
" style="fill: none; stroke: #ece133; stroke-width: 1.5; stroke-linecap: square"/>
    </g>
    <g id="text_32">
     <!-- $\mathrm{SELU}'(x)$ -->
     <g transform="translate(665.2636 19.273926)scale(0.07 -0.07)">
      <defs>
       <path id="NimbusSanL-Regu-53" d="M 3814 3295 
C 3808 4204 3181 4736 2106 4736 
C 1082 4736 448 4211 448 3372 
C 448 2806 749 2450 1363 2291 
L 2522 1986 
C 3110 1833 3379 1598 3379 1236 
C 3379 988 3245 733 3046 593 
C 2861 466 2566 396 2189 396 
C 1683 396 1338 517 1114 784 
C 941 988 864 1210 870 1496 
L 307 1496 
C 314 1070 397 790 582 536 
C 902 102 1440 -128 2150 -128 
C 2707 -128 3162 0 3462 230 
C 3776 479 3974 892 3974 1293 
C 3974 1865 3616 2284 2982 2456 
L 1811 2768 
C 1248 2920 1043 3098 1043 3454 
C 1043 3925 1459 4236 2086 4236 
C 2829 4236 3245 3899 3251 3295 
L 3814 3295 
z
" transform="scale(0.015625)"/>
      </defs>
      <use xlink:href="#NimbusSanL-Regu-53" transform="scale(0.996264)"/>
      <use xlink:href="#NimbusSanL-Regu-45" transform="translate(66.450031 0)scale(0.996264)"/>
      <use xlink:href="#NimbusSanL-Regu-4c" transform="translate(132.900062 0)scale(0.996264)"/>
      <use xlink:href="#NimbusSanL-Regu-55" transform="translate(188.291739 0)scale(0.996264)"/>
      <use xlink:href="#CMSY10-30" transform="translate(260.221724 46.498209)scale(0.697382)"/>
      <use xlink:href="#NimbusSanL-Regu-28" transform="translate(279.897817 0)scale(0.996264)"/>
      <use xlink:href="#NimbusSanL-ReguItal-78" transform="translate(313.073046 0)scale(0.996264)"/>
      <use xlink:href="#NimbusSanL-Regu-29" transform="translate(372.250545 0)scale(0.996264)"/>
     </g>
    </g>
   </g>
  </g>
  <g id="text_33">
   <!-- \textit{Figure 1.} Optimized 3-bit piecewise-constant approximations of the derivatives of activation functions. -->
   <g transform="translate(114.606463 166.876576)scale(0.108 -0.108)">
    <defs>
     <path id="NimbusSanL-ReguItal-46" d="M 1632 2112 
L 3853 2112 
L 3962 2636 
L 1741 2636 
L 2061 4147 
L 4589 4147 
L 4698 4672 
L 1568 4672 
L 576 0 
L 1178 0 
L 1632 2112 
z
" transform="scale(0.015625)"/>
     <path id="NimbusSanL-ReguItal-69" d="M 1670 3358 
L 1133 3358 
L 422 0 
L 960 0 
L 1670 3358 
z
M 1952 4672 
L 1414 4672 
L 1274 4012 
L 1811 4012 
L 1952 4672 
z
" transform="scale(0.015625)"/>
     <path id="NimbusSanL-ReguItal-67" d="M 3360 3359 
L 3251 2859 
C 3155 3071 3091 3161 2950 3263 
C 2784 3385 2579 3456 2362 3456 
C 1869 3456 1370 3212 1056 2814 
C 717 2388 474 1657 474 1063 
C 474 358 928 -128 1581 -128 
C 1984 -128 2362 44 2682 384 
L 2656 262 
C 2470 -612 2125 -960 1446 -960 
C 1011 -960 755 -786 755 -496 
L 755 -457 
L 755 -406 
L 218 -406 
L 211 -490 
C 205 -541 205 -580 205 -606 
C 205 -1101 653 -1421 1338 -1421 
C 1843 -1421 2298 -1268 2586 -993 
C 2906 -683 3078 -290 3251 526 
L 3846 3359 
L 3360 3359 
z
M 2323 2963 
C 2733 2963 3002 2653 3002 2168 
C 3002 1767 2886 1289 2707 972 
C 2496 578 2118 332 1734 332 
C 1306 332 1037 655 1037 1166 
C 1037 1554 1146 1967 1331 2304 
C 1562 2724 1920 2963 2323 2963 
z
" transform="scale(0.015625)"/>
     <path id="NimbusSanL-ReguItal-75" d="M 3091 19 
L 3802 3328 
L 3264 3328 
L 2861 1454 
C 2714 773 2259 332 1715 332 
C 1370 332 1146 521 1146 818 
C 1146 868 1152 925 1165 988 
L 1670 3328 
L 1133 3328 
L 582 780 
C 570 717 563 647 563 565 
C 563 134 896 -128 1446 -128 
C 1946 -128 2310 25 2682 383 
L 2605 19 
L 3091 19 
z
" transform="scale(0.015625)"/>
     <path id="NimbusSanL-ReguItal-72" d="M 1152 3328 
L 442 0 
L 979 0 
L 1350 1727 
C 1517 2501 1971 2888 2675 2863 
L 2790 3404 
C 2707 3449 2656 3456 2586 3456 
C 2214 3456 1926 3289 1530 2834 
L 1638 3328 
L 1152 3328 
z
" transform="scale(0.015625)"/>
     <path id="NimbusSanL-ReguItal-65" d="M 3603 1523 
L 3622 1631 
C 3680 1939 3712 2203 3712 2373 
C 3712 2975 3181 3456 2490 3456 
C 1933 3456 1395 3193 1075 2768 
C 774 2373 538 1651 538 1130 
C 538 783 685 429 934 192 
C 1158 -26 1440 -128 1805 -128 
C 2573 -128 3232 345 3430 1040 
L 2893 1040 
C 2662 596 2323 364 1894 364 
C 1389 364 1101 680 1101 1227 
C 1101 1362 1107 1426 1133 1523 
L 3603 1523 
z
M 1248 1984 
C 1414 2561 1888 2963 2406 2963 
C 2861 2963 3149 2661 3149 2191 
C 3149 2128 3142 2084 3130 1984 
L 1248 1984 
z
" transform="scale(0.015625)"/>
     <path id="NimbusSanL-ReguItal-31" d="M 2349 3232 
L 1658 0 
L 2221 0 
L 3187 4537 
L 2816 4537 
C 2470 3846 2336 3763 1414 3635 
L 1331 3232 
L 2349 3232 
z
" transform="scale(0.015625)"/>
     <path id="NimbusSanL-ReguItal-2e" d="M 1363 659 
L 698 659 
L 557 0 
L 1222 0 
L 1363 659 
z
" transform="scale(0.015625)"/>
     <path id="NimbusSanL-Regu-4f" d="M 2490 4736 
C 1152 4736 243 3753 243 2304 
C 243 854 1152 -128 2496 -128 
C 3059 -128 3565 44 3942 364 
C 4448 790 4749 1509 4749 2265 
C 4749 3759 3859 4736 2490 4736 
z
M 2490 4211 
C 3501 4211 4154 3448 4154 2278 
C 4154 1159 3482 396 2496 396 
C 1504 396 838 1159 838 2304 
C 838 3448 1504 4211 2490 4211 
z
" transform="scale(0.015625)"/>
     <path id="NimbusSanL-Regu-70" d="M 346 -1408 
L 883 -1408 
L 883 371 
C 1165 25 1478 -128 1914 -128 
C 2778 -128 3347 568 3347 1632 
C 3347 2752 2797 3456 1907 3456 
C 1453 3456 1088 3251 838 2854 
L 838 3359 
L 346 3359 
L 346 -1408 
z
M 1818 2956 
C 2406 2956 2790 2440 2790 1644 
C 2790 887 2400 371 1818 371 
C 1254 371 883 880 883 1663 
C 883 2447 1254 2956 1818 2956 
z
" transform="scale(0.015625)"/>
     <path id="NimbusSanL-Regu-69" d="M 960 3358 
L 429 3358 
L 429 0 
L 960 0 
L 960 3358 
z
M 960 4672 
L 422 4672 
L 422 3999 
L 960 3999 
L 960 4672 
z
" transform="scale(0.015625)"/>
     <path id="NimbusSanL-Regu-6d" d="M 448 3328 
L 448 0 
L 986 0 
L 986 2089 
C 986 2597 1338 2988 1773 2988 
C 2170 2988 2394 2744 2394 2315 
L 2394 0 
L 2931 0 
L 2931 2109 
C 2931 2597 3283 2988 3718 2988 
C 4109 2988 4339 2738 4339 2315 
L 4339 0 
L 4877 0 
L 4877 2520 
C 4877 3123 4531 3456 3904 3456 
C 3456 3456 3187 3321 2874 2943 
C 2675 3302 2406 3456 1971 3456 
C 1523 3456 1229 3289 941 2886 
L 941 3328 
L 448 3328 
z
" transform="scale(0.015625)"/>
     <path id="NimbusSanL-Regu-7a" d="M 2835 3328 
L 333 3328 
L 333 2860 
L 2202 2860 
L 198 479 
L 198 0 
L 2925 0 
L 2925 467 
L 845 467 
L 2835 2854 
L 2835 3328 
z
" transform="scale(0.015625)"/>
     <path id="NimbusSanL-Regu-65" d="M 3283 1484 
C 3283 1998 3245 2311 3149 2565 
C 2931 3123 2419 3456 1792 3456 
C 858 3456 256 2734 256 1619 
C 256 545 838 -128 1779 -128 
C 2547 -128 3078 307 3213 1018 
L 2675 1018 
C 2528 588 2227 364 1798 364 
C 1459 364 1171 514 992 787 
C 864 974 819 1161 813 1484 
L 3283 1484 
z
M 826 1920 
C 870 2552 1248 2963 1786 2963 
C 2310 2963 2714 2519 2714 1959 
C 2714 1946 2714 1933 2707 1920 
L 826 1920 
z
" transform="scale(0.015625)"/>
     <path id="NimbusSanL-Regu-64" d="M 3168 4672 
L 2637 4672 
L 2637 2937 
C 2413 3276 2054 3456 1606 3456 
C 736 3456 166 2759 166 1695 
C 166 568 723 -128 1626 -128 
C 2086 -128 2406 44 2694 460 
L 2694 19 
L 3168 19 
L 3168 4672 
z
M 1696 2956 
C 2272 2956 2637 2447 2637 1651 
C 2637 880 2266 371 1702 371 
C 1114 371 723 887 723 1663 
C 723 2440 1114 2956 1696 2956 
z
" transform="scale(0.015625)"/>
     <path id="NimbusSanL-Regu-33" d="M 1414 2093 
L 1485 2093 
L 1722 2099 
C 2342 2099 2662 1819 2662 1276 
C 2662 709 2310 371 1722 371 
C 1107 371 806 677 768 1334 
L 205 1334 
C 230 970 294 734 403 530 
C 634 96 1082 -128 1702 -128 
C 2637 -128 3238 428 3238 1283 
C 3238 1857 3014 2176 2470 2361 
C 2893 2526 3104 2845 3104 3298 
C 3104 4076 2586 4544 1722 4544 
C 806 4544 320 4044 301 3081 
L 864 3081 
C 870 3356 896 3509 966 3649 
C 1094 3898 1376 4051 1728 4051 
C 2227 4051 2528 3757 2528 3279 
C 2528 2960 2413 2769 2163 2667 
C 2010 2603 1811 2577 1414 2571 
L 1414 2093 
z
" transform="scale(0.015625)"/>
     <path id="NimbusSanL-Regu-2d" d="M 1818 1996 
L 294 1996 
L 294 1536 
L 1818 1536 
L 1818 1996 
z
" transform="scale(0.015625)"/>
     <path id="NimbusSanL-Regu-62" d="M 346 4672 
L 346 19 
L 826 19 
L 826 447 
C 1082 57 1421 -128 1888 -128 
C 2771 -128 3347 594 3347 1702 
C 3347 2784 2797 3456 1914 3456 
C 1453 3456 1126 3283 877 2905 
L 877 4672 
L 346 4672 
z
M 1811 2956 
C 2406 2956 2790 2440 2790 1644 
C 2790 887 2394 371 1811 371 
C 1248 371 877 880 877 1663 
C 877 2447 1248 2956 1811 2956 
z
" transform="scale(0.015625)"/>
     <path id="NimbusSanL-Regu-63" d="M 3014 2237 
C 2989 2561 2918 2771 2790 2956 
C 2560 3270 2157 3456 1690 3456 
C 787 3456 198 2740 198 1632 
C 198 555 774 -128 1683 -128 
C 2483 -128 2989 352 3053 1167 
L 2515 1167 
C 2426 632 2150 364 1696 364 
C 1107 364 755 842 755 1632 
C 755 2466 1101 2963 1683 2963 
C 2131 2963 2413 2701 2477 2237 
L 3014 2237 
z
" transform="scale(0.015625)"/>
     <path id="NimbusSanL-Regu-77" d="M 3546 0 
L 4531 3328 
L 3930 3328 
L 3264 737 
L 2605 3328 
L 1952 3328 
L 1312 737 
L 627 3328 
L 38 3328 
L 1011 0 
L 1613 0 
L 2259 2609 
L 2938 0 
L 3546 0 
z
" transform="scale(0.015625)"/>
     <path id="NimbusSanL-Regu-73" d="M 2803 2428 
C 2797 3084 2362 3456 1587 3456 
C 806 3456 301 3052 301 2434 
C 301 1912 570 1663 1363 1472 
L 1862 1351 
C 2234 1262 2381 1129 2381 887 
C 2381 574 2067 364 1600 364 
C 1312 364 1069 447 934 587 
C 851 683 813 778 781 1014 
L 218 1014 
C 243 243 678 -128 1555 -128 
C 2400 -128 2938 288 2938 931 
C 2938 1428 2656 1702 1990 1861 
L 1478 1982 
C 1043 2084 858 2224 858 2459 
C 858 2765 1133 2963 1568 2963 
C 1997 2963 2227 2778 2240 2428 
L 2803 2428 
z
" transform="scale(0.015625)"/>
     <path id="NimbusSanL-Regu-6f" d="M 1741 3456 
C 800 3456 230 2784 230 1663 
C 230 543 794 -128 1747 -128 
C 2688 -128 3264 543 3264 1638 
C 3264 2791 2707 3456 1741 3456 
z
M 1747 2963 
C 2349 2963 2707 2472 2707 1644 
C 2707 861 2336 364 1747 364 
C 1152 364 787 855 787 1663 
C 787 2466 1152 2963 1747 2963 
z
" transform="scale(0.015625)"/>
     <path id="NimbusSanL-Regu-72" d="M 442 3328 
L 442 0 
L 979 0 
L 979 1727 
C 979 2203 1101 2514 1357 2698 
C 1523 2819 1683 2857 2054 2863 
L 2054 3404 
C 1965 3449 1920 3456 1850 3456 
C 1504 3456 1242 3251 934 2750 
L 934 3328 
L 442 3328 
z
" transform="scale(0.015625)"/>
     <path id="NimbusSanL-Regu-78" d="M 1869 1721 
L 2995 3328 
L 2394 3328 
L 1587 2120 
L 781 3328 
L 173 3328 
L 1293 1695 
L 109 0 
L 717 0 
L 1568 1276 
L 2406 0 
L 3027 0 
L 1869 1721 
z
" transform="scale(0.015625)"/>
     <path id="NimbusSanL-Regu-66" d="M 1651 3328 
L 1094 3328 
L 1094 3860 
C 1094 4087 1222 4204 1466 4204 
C 1510 4204 1530 4204 1651 4198 
L 1651 4639 
C 1530 4665 1459 4672 1350 4672 
C 858 4672 563 4390 563 3905 
L 563 3328 
L 115 3328 
L 115 2892 
L 563 2892 
L 563 0 
L 1094 0 
L 1094 2892 
L 1651 2892 
L 1651 3328 
z
" transform="scale(0.015625)"/>
     <path id="NimbusSanL-Regu-76" d="M 1824 0 
L 3110 3328 
L 2509 3328 
L 1562 629 
L 666 3328 
L 64 3328 
L 1242 0 
L 1824 0 
z
" transform="scale(0.015625)"/>
     <path id="NimbusSanL-Regu-75" d="M 3085 19 
L 3085 3328 
L 2554 3328 
L 2554 1454 
C 2554 780 2195 339 1638 339 
C 1216 339 947 591 947 988 
L 947 3328 
L 416 3328 
L 416 780 
C 416 230 832 -128 1485 -128 
C 1978 -128 2291 44 2605 484 
L 2605 19 
L 3085 19 
z
" transform="scale(0.015625)"/>
    </defs>
    <use xlink:href="#NimbusSanL-ReguItal-46" transform="scale(0.996264)"/>
    <use xlink:href="#NimbusSanL-ReguItal-69" transform="translate(60.871631 0)scale(0.996264)"/>
    <use xlink:href="#NimbusSanL-ReguItal-67" transform="translate(82.988415 0)scale(0.996264)"/>
    <use xlink:href="#NimbusSanL-ReguItal-75" transform="translate(138.380092 0)scale(0.996264)"/>
    <use xlink:href="#NimbusSanL-ReguItal-72" transform="translate(193.771769 0)scale(0.996264)"/>
    <use xlink:href="#NimbusSanL-ReguItal-65" transform="translate(226.946999 0)scale(0.996264)"/>
    <use xlink:href="#NimbusSanL-ReguItal-31" transform="translate(310.033845 0)scale(0.996264)"/>
    <use xlink:href="#NimbusSanL-ReguItal-2e" transform="translate(365.425522 0)scale(0.996264)"/>
    <use xlink:href="#NimbusSanL-Regu-4f" transform="translate(427.390343 0)scale(0.996264)"/>
    <use xlink:href="#NimbusSanL-Regu-70" transform="translate(504.898714 0)scale(0.996264)"/>
    <use xlink:href="#NimbusSanL-Regu-74" transform="translate(560.290391 0)scale(0.996264)"/>
    <use xlink:href="#NimbusSanL-Regu-69" transform="translate(587.98556 0)scale(0.996264)"/>
    <use xlink:href="#NimbusSanL-Regu-6d" transform="translate(610.102344 0)scale(0.996264)"/>
    <use xlink:href="#NimbusSanL-Regu-69" transform="translate(693.090775 0)scale(0.996264)"/>
    <use xlink:href="#NimbusSanL-Regu-7a" transform="translate(715.207559 0)scale(0.996264)"/>
    <use xlink:href="#NimbusSanL-Regu-65" transform="translate(763.527367 0)scale(0.996264)"/>
    <use xlink:href="#NimbusSanL-Regu-64" transform="translate(818.919044 0)scale(0.996264)"/>
    <use xlink:href="#NimbusSanL-Regu-33" transform="translate(902.00589 0)scale(0.996264)"/>
    <use xlink:href="#NimbusSanL-Regu-2d" transform="translate(957.397567 0)scale(0.996264)"/>
    <use xlink:href="#NimbusSanL-Regu-62" transform="translate(990.572797 0)scale(0.996264)"/>
    <use xlink:href="#NimbusSanL-Regu-69" transform="translate(1045.964474 0)scale(0.996264)"/>
    <use xlink:href="#NimbusSanL-Regu-74" transform="translate(1068.081258 0)scale(0.996264)"/>
    <use xlink:href="#NimbusSanL-Regu-70" transform="translate(1123.471598 0)scale(0.996264)"/>
    <use xlink:href="#NimbusSanL-Regu-69" transform="translate(1178.863275 0)scale(0.996264)"/>
    <use xlink:href="#NimbusSanL-Regu-65" transform="translate(1200.980059 0)scale(0.996264)"/>
    <use xlink:href="#NimbusSanL-Regu-63" transform="translate(1256.371736 0)scale(0.996264)"/>
    <use xlink:href="#NimbusSanL-Regu-65" transform="translate(1306.184936 0)scale(0.996264)"/>
    <use xlink:href="#NimbusSanL-Regu-77" transform="translate(1359.584602 0)scale(0.996264)"/>
    <use xlink:href="#NimbusSanL-Regu-69" transform="translate(1431.514587 0)scale(0.996264)"/>
    <use xlink:href="#NimbusSanL-Regu-73" transform="translate(1453.631371 0)scale(0.996264)"/>
    <use xlink:href="#NimbusSanL-Regu-65" transform="translate(1503.444572 0)scale(0.996264)"/>
    <use xlink:href="#NimbusSanL-Regu-2d" transform="translate(1558.836249 0)scale(0.996264)"/>
    <use xlink:href="#NimbusSanL-Regu-63" transform="translate(1592.011479 0)scale(0.996264)"/>
    <use xlink:href="#NimbusSanL-Regu-6f" transform="translate(1641.824679 0)scale(0.996264)"/>
    <use xlink:href="#NimbusSanL-Regu-6e" transform="translate(1697.216356 0)scale(0.996264)"/>
    <use xlink:href="#NimbusSanL-Regu-73" transform="translate(1752.608033 0)scale(0.996264)"/>
    <use xlink:href="#NimbusSanL-Regu-74" transform="translate(1802.421233 0)scale(0.996264)"/>
    <use xlink:href="#NimbusSanL-Regu-61" transform="translate(1830.116403 0)scale(0.996264)"/>
    <use xlink:href="#NimbusSanL-Regu-6e" transform="translate(1885.50808 0)scale(0.996264)"/>
    <use xlink:href="#NimbusSanL-Regu-74" transform="translate(1940.899757 0)scale(0.996264)"/>
    <use xlink:href="#NimbusSanL-Regu-61" transform="translate(1996.290096 0)scale(0.996264)"/>
    <use xlink:href="#NimbusSanL-Regu-70" transform="translate(2051.681773 0)scale(0.996264)"/>
    <use xlink:href="#NimbusSanL-Regu-70" transform="translate(2107.07345 0)scale(0.996264)"/>
    <use xlink:href="#NimbusSanL-Regu-72" transform="translate(2162.465127 0)scale(0.996264)"/>
    <use xlink:href="#NimbusSanL-Regu-6f" transform="translate(2195.640357 0)scale(0.996264)"/>
    <use xlink:href="#NimbusSanL-Regu-78" transform="translate(2248.043926 0)scale(0.996264)"/>
    <use xlink:href="#NimbusSanL-Regu-69" transform="translate(2297.857126 0)scale(0.996264)"/>
    <use xlink:href="#NimbusSanL-Regu-6d" transform="translate(2319.973911 0)scale(0.996264)"/>
    <use xlink:href="#NimbusSanL-Regu-61" transform="translate(2402.962341 0)scale(0.996264)"/>
    <use xlink:href="#NimbusSanL-Regu-74" transform="translate(2458.354018 0)scale(0.996264)"/>
    <use xlink:href="#NimbusSanL-Regu-69" transform="translate(2486.049187 0)scale(0.996264)"/>
    <use xlink:href="#NimbusSanL-Regu-6f" transform="translate(2508.165972 0)scale(0.996264)"/>
    <use xlink:href="#NimbusSanL-Regu-6e" transform="translate(2563.557649 0)scale(0.996264)"/>
    <use xlink:href="#NimbusSanL-Regu-73" transform="translate(2618.949326 0)scale(0.996264)"/>
    <use xlink:href="#NimbusSanL-Regu-6f" transform="translate(2696.457696 0)scale(0.996264)"/>
    <use xlink:href="#NimbusSanL-Regu-66" transform="translate(2751.849373 0)scale(0.996264)"/>
    <use xlink:href="#NimbusSanL-Regu-74" transform="translate(2807.239712 0)scale(0.996264)"/>
    <use xlink:href="#NimbusSanL-Regu-68" transform="translate(2834.934882 0)scale(0.996264)"/>
    <use xlink:href="#NimbusSanL-Regu-65" transform="translate(2890.326559 0)scale(0.996264)"/>
    <use xlink:href="#NimbusSanL-Regu-64" transform="translate(2973.413405 0)scale(0.996264)"/>
    <use xlink:href="#NimbusSanL-Regu-65" transform="translate(3028.805082 0)scale(0.996264)"/>
    <use xlink:href="#NimbusSanL-Regu-72" transform="translate(3084.196759 0)scale(0.996264)"/>
    <use xlink:href="#NimbusSanL-Regu-69" transform="translate(3118.865366 0)scale(0.996264)"/>
    <use xlink:href="#NimbusSanL-Regu-76" transform="translate(3140.982151 0)scale(0.996264)"/>
    <use xlink:href="#NimbusSanL-Regu-61" transform="translate(3188.304722 0)scale(0.996264)"/>
    <use xlink:href="#NimbusSanL-Regu-74" transform="translate(3243.696399 0)scale(0.996264)"/>
    <use xlink:href="#NimbusSanL-Regu-69" transform="translate(3271.391568 0)scale(0.996264)"/>
    <use xlink:href="#NimbusSanL-Regu-76" transform="translate(3293.508352 0)scale(0.996264)"/>
    <use xlink:href="#NimbusSanL-Regu-65" transform="translate(3340.830923 0)scale(0.996264)"/>
    <use xlink:href="#NimbusSanL-Regu-73" transform="translate(3396.2226 0)scale(0.996264)"/>
    <use xlink:href="#NimbusSanL-Regu-6f" transform="translate(3473.73097 0)scale(0.996264)"/>
    <use xlink:href="#NimbusSanL-Regu-66" transform="translate(3529.122647 0)scale(0.996264)"/>
    <use xlink:href="#NimbusSanL-Regu-61" transform="translate(3584.512987 0)scale(0.996264)"/>
    <use xlink:href="#NimbusSanL-Regu-63" transform="translate(3639.904664 0)scale(0.996264)"/>
    <use xlink:href="#NimbusSanL-Regu-74" transform="translate(3689.717864 0)scale(0.996264)"/>
    <use xlink:href="#NimbusSanL-Regu-69" transform="translate(3717.413034 0)scale(0.996264)"/>
    <use xlink:href="#NimbusSanL-Regu-76" transform="translate(3739.529818 0)scale(0.996264)"/>
    <use xlink:href="#NimbusSanL-Regu-61" transform="translate(3786.852389 0)scale(0.996264)"/>
    <use xlink:href="#NimbusSanL-Regu-74" transform="translate(3842.244066 0)scale(0.996264)"/>
    <use xlink:href="#NimbusSanL-Regu-69" transform="translate(3869.939235 0)scale(0.996264)"/>
    <use xlink:href="#NimbusSanL-Regu-6f" transform="translate(3892.05602 0)scale(0.996264)"/>
    <use xlink:href="#NimbusSanL-Regu-6e" transform="translate(3947.447697 0)scale(0.996264)"/>
    <use xlink:href="#NimbusSanL-Regu-66" transform="translate(4030.534543 0)scale(0.996264)"/>
    <use xlink:href="#NimbusSanL-Regu-75" transform="translate(4058.229713 0)scale(0.996264)"/>
    <use xlink:href="#NimbusSanL-Regu-6e" transform="translate(4113.62139 0)scale(0.996264)"/>
    <use xlink:href="#NimbusSanL-Regu-63" transform="translate(4169.013067 0)scale(0.996264)"/>
    <use xlink:href="#NimbusSanL-Regu-74" transform="translate(4218.826267 0)scale(0.996264)"/>
    <use xlink:href="#NimbusSanL-Regu-69" transform="translate(4246.521437 0)scale(0.996264)"/>
    <use xlink:href="#NimbusSanL-Regu-6f" transform="translate(4268.638221 0)scale(0.996264)"/>
    <use xlink:href="#NimbusSanL-Regu-6e" transform="translate(4324.029898 0)scale(0.996264)"/>
    <use xlink:href="#NimbusSanL-Regu-73" transform="translate(4379.421575 0)scale(0.996264)"/>
    <use xlink:href="#NimbusSanL-Regu-2e" transform="translate(4427.741383 0)scale(0.996264)"/>
   </g>
  </g>
 </g>
 <defs>
  <clipPath id="p3f66a8b373">
   <rect x="36.933156" y="7.2" width="212.781736" height="120.023042"/>
  </clipPath>
  <clipPath id="pec5ff6475b">
   <rect x="262.706117" y="7.2" width="212.781736" height="120.023042"/>
  </clipPath>
  <clipPath id="p5af78034e0">
   <rect x="488.479078" y="7.2" width="212.781736" height="120.023042"/>
  </clipPath>
 </defs>
</svg>
